<?xml version="1.0" encoding="utf-8"?>
<!-- Generator: Adobe Illustrator 21.0.0, SVG Export Plug-In . SVG Version: 6.00 Build 0)  -->
<svg version="1.1" id="Layer_1" xmlns="http://www.w3.org/2000/svg" xmlns:xlink="http://www.w3.org/1999/xlink" x="0px" y="0px"
	 viewBox="0 0 512 555.4" style="enable-background:new 0 0 512 555.4;" xml:space="preserve">
<style type="text/css">
	.st0{fill:#fdd146;}
	.st1{opacity:0.1;}
	.st2{fill:#414042;}
</style>
<path class="st0" d="M400.1,502.6c-3.6,0-7.1-0.8-10.4-2.5L256,432l-133.7,68.2c-3.3,1.7-6.8,2.5-10.4,2.5c-4.7,0-9.4-1.5-13.4-4.3
	c-7-5-10.5-13.5-9.2-22l23-149.6L6.6,219.2c-6-6.1-8.1-15-5.4-23.2c2.7-8.1,9.6-14.1,18.1-15.5l147.9-24.1l68.5-134.6
	c3.9-7.7,11.8-12.5,20.4-12.5c8.6,0,16.5,4.8,20.4,12.5l68.5,134.6l147.9,24.1c8.4,1.4,15.4,7.4,18.1,15.5
	c2.7,8.1,0.6,17.1-5.4,23.2L399.7,326.6l23,149.6c1.3,8.5-2.3,17-9.2,22C409.5,501.2,404.8,502.6,400.1,502.6z"/>
<g class="st1">
	<path class="st2" d="M146.6,486.6c-7-5-10.5-13.5-9.2-22l23-149.6L54.6,207.5c-6-6.1-8.1-15-5.4-23.2c1.2-3.8,3.4-7.1,6.2-9.7
		l-36.2,5.9c-8.4,1.4-15.4,7.4-18.1,15.5c-2.7,8.1-0.6,17.1,5.4,23.2l105.7,107.4l-23,149.6c-1.3,8.5,2.3,17,9.2,22
		c4,2.9,8.7,4.3,13.4,4.3c3.6,0,7.1-0.8,10.4-2.5l25.3-12.9C147.3,487,146.9,486.8,146.6,486.6z"/>
</g>
<g>
	<path d="M437.4,409.9c26.8,8.2,50.9,28.7,50.9,67.6c0,55.5-51.3,77.7-105.6,77.7c-34.2,0-61.7-5.4-91.6-17.9v-54
		c29.9,16.7,56.7,21,87,20.6c29.9,0,54.7-9.7,54.7-34.6c0-22.5-19.4-30.7-45.8-30.7h-43.5l0.4-49.7l36.5,0.4c26,0,41.9-9.7,41.9-28
		c0-19-16.7-30.3-48.5-30.3c-23.7,0-52,7.8-78,23.7v-54c23.7-12.8,53.6-20.6,86.2-20.6c54.7,0,95.5,24.8,95.5,73
		C477.4,380.4,462.3,401.4,437.4,409.9z"/>
</g>
</svg>
